<svg width="106" height="32" viewBox="0 0 106 32" fill="none" xmlns="http://www.w3.org/2000/svg">
    <path class="alivio-letter" d="M10.1751 5.05135C10.7972 3.61196 12.2152 2.68001 13.7833 2.68001V2.68001C15.348 2.68001 16.7637 3.60799 17.3878 5.04278L26.7311 26.5203C27.6512 28.6353 26.1012 31 23.7947 31V31C22.4919 31 21.319 30.2108 20.8283 29.004L20.42 28C19.6823 26.1862 17.9194 25 15.9614 25H11.4237C9.47875 25 7.73188 26.1901 7.01996 28L6.61877 29.02C6.1489 30.2146 4.99595 31 3.71229 31V31C1.46596 31 -0.0458252 28.6997 0.845371 26.6377L10.1751 5.05135ZM15.8049 16.4957C15.0173 14.5041 12.1967 14.5097 11.417 16.5043V16.5043C10.8127 18.0503 11.9528 19.72 13.6126 19.72V19.72C15.2765 19.72 16.4167 18.0429 15.8049 16.4957V16.4957Z"/>
    <path class="alivio-letter" d="M30.8484 3.76001C30.8484 2.10316 32.1915 0.76001 33.8484 0.76001V0.76001C35.5053 0.76001 36.8484 2.10316 36.8484 3.76001V28C36.8484 29.6569 35.5053 31 33.8484 31V31C32.1915 31 30.8484 29.6569 30.8484 28V3.76001Z"/>
    <path class="alivio-letter" d="M41.239 14.56C41.239 12.9032 42.5822 11.56 44.239 11.56V11.56C45.8959 11.56 47.239 12.9032 47.239 14.56V28C47.239 29.6569 45.8959 31 44.239 31V31C42.5822 31 41.239 29.6569 41.239 28V14.56ZM40.759 5.44001C40.759 4.48001 41.0924 3.66668 41.759 3.00001C42.4524 2.30668 43.279 1.96001 44.239 1.96001C45.199 1.96001 46.0124 2.30668 46.679 3.00001C47.3724 3.66668 47.719 4.48001 47.719 5.44001C47.719 6.40001 47.3724 7.22668 46.679 7.92001C46.0124 8.58668 45.199 8.92001 44.239 8.92001C43.279 8.92001 42.4524 8.58668 41.759 7.92001C41.0924 7.22668 40.759 6.40001 40.759 5.44001Z"/>
    <path class="alivio-letter" d="M51.2009 15.6494C50.3953 13.7015 51.8271 11.56 53.935 11.56V11.56C55.1704 11.56 56.2758 12.3277 56.7073 13.4853L60.8959 24.723C60.9041 24.7453 60.9254 24.76 60.9491 24.76V24.76C60.9734 24.76 60.995 24.7446 61.0029 24.7217L64.9059 13.4236C65.2912 12.3083 66.3413 11.56 67.5213 11.56V11.56C69.4739 11.56 70.8123 13.5278 70.0948 15.3438L65.0881 28.0171C64.3769 29.8172 62.6379 31 60.7024 31V31C58.7941 31 57.074 29.85 56.3447 28.0866L51.2009 15.6494Z"/>
    <path class="alivio-letter" d="M73.8562 14.56C73.8562 12.9032 75.1994 11.56 76.8562 11.56V11.56C78.5131 11.56 79.8562 12.9032 79.8562 14.56V28C79.8562 29.6569 78.5131 31 76.8562 31V31C75.1994 31 73.8562 29.6569 73.8562 28V14.56ZM73.3762 5.44001C73.3762 4.48001 73.7095 3.66668 74.3762 3.00001C75.0695 2.30668 75.8962 1.96001 76.8562 1.96001C77.8162 1.96001 78.6295 2.30668 79.2962 3.00001C79.9895 3.66668 80.3362 4.48001 80.3362 5.44001C80.3362 6.40001 79.9895 7.22668 79.2962 7.92001C78.6295 8.58668 77.8162 8.92001 76.8562 8.92001C75.8962 8.92001 75.0695 8.58668 74.3762 7.92001C73.7095 7.22668 73.3762 6.40001 73.3762 5.44001Z"/>
    <path class="alivio-letter" d="M83.4468 21.28C83.4468 19.7333 83.7268 18.3333 84.2868 17.08C84.8468 15.8267 85.6068 14.76 86.5668 13.88C87.5535 12.9733 88.7002 12.28 90.0068 11.8C91.3402 11.32 92.7535 11.08 94.2468 11.08C95.7402 11.08 97.1402 11.32 98.4468 11.8C99.7802 12.28 100.927 12.9733 101.887 13.88C102.874 14.76 103.647 15.8267 104.207 17.08C104.767 18.3333 105.047 19.7333 105.047 21.28C105.047 22.8267 104.767 24.2267 104.207 25.48C103.647 26.7333 102.874 27.8133 101.887 28.72C100.927 29.6 99.7802 30.28 98.4468 30.76C97.1402 31.24 95.7402 31.48 94.2468 31.48C92.7535 31.48 91.3402 31.24 90.0068 30.76C88.7002 30.28 87.5535 29.6 86.5668 28.72C85.6068 27.8133 84.8468 26.7333 84.2868 25.48C83.7268 24.2267 83.4468 22.8267 83.4468 21.28ZM89.4468 21.28C89.4468 22.7467 89.8602 23.9333 90.6868 24.84C91.5402 25.7467 92.7268 26.2 94.2468 26.2C95.7668 26.2 96.9402 25.7467 97.7668 24.84C98.6202 23.9333 99.0468 22.7467 99.0468 21.28C99.0468 19.8133 98.6202 18.6267 97.7668 17.72C96.9402 16.8133 95.7668 16.36 94.2468 16.36C92.7268 16.36 91.5402 16.8133 90.6868 17.72C89.8602 18.6267 89.4468 19.8133 89.4468 21.28Z"/>
</svg>
